<svg width="1200" height="800" viewBox="0 0 1200 800" fill="none" xmlns="http://www.w3.org/2000/svg">
  <rect width="1200" height="800" fill="#F8F8F8"/>
  <rect x="40" y="40" width="1120" height="720" rx="4" fill="#FFFFFF" stroke="#E5E5E5"/>
  <rect x="40" y="40" width="1120" height="60" fill="#1A1A1A"/>
  <rect x="70" y="58" width="100" height="24" rx="2" fill="#FFFFFF"/>
  <rect x="900" y="62" width="80" height="16" rx="2" fill="#555555"/>
  <rect x="1000" y="62" width="80" height="16" rx="2" fill="#555555"/>
  <rect x="1100" y="58" width="40" height="24" rx="12" fill="#555555"/>
  <rect x="70" y="130" width="200" height="20" rx="2" fill="#333333"/>
  <rect x="70" y="170" width="340" height="48" rx="4" fill="#FAFAFA" stroke="#E0E0E0"/>
  <rect x="90" y="186" width="200" height="16" rx="2" fill="#CCCCCC"/>
  <rect x="1000" y="170" width="130" height="48" rx="4" fill="#1A1A1A"/>
  <rect x="70" y="250" width="1060" height="48" rx="0" fill="#F5F5F5"/>
  <rect x="90" y="266" width="80" height="14" rx="2" fill="#888888"/>
  <rect x="250" y="266" width="100" height="14" rx="2" fill="#888888"/>
  <rect x="450" y="266" width="80" height="14" rx="2" fill="#888888"/>
  <rect x="650" y="266" width="60" height="14" rx="2" fill="#888888"/>
  <rect x="850" y="266" width="80" height="14" rx="2" fill="#888888"/>
  <rect x="70" y="310" width="1060" height="56" rx="0" fill="#FFFFFF" stroke="#EEEEEE"/>
  <rect x="90" y="330" width="120" height="14" rx="2" fill="#333333"/>
  <rect x="250" y="330" width="140" height="14" rx="2" fill="#666666"/>
  <rect x="450" y="330" width="60" height="14" rx="2" fill="#666666"/>
  <rect x="650" y="326" width="80" height="22" rx="4" fill="#E8F5E9"/>
  <rect x="850" y="326" width="100" height="22" rx="4" fill="#FAFAFA" stroke="#E0E0E0"/>
  <rect x="70" y="378" width="1060" height="56" rx="0" fill="#FFFFFF" stroke="#EEEEEE"/>
  <rect x="90" y="398" width="100" height="14" rx="2" fill="#333333"/>
  <rect x="250" y="398" width="120" height="14" rx="2" fill="#666666"/>
  <rect x="450" y="398" width="50" height="14" rx="2" fill="#666666"/>
  <rect x="650" y="394" width="80" height="22" rx="4" fill="#FFF3E0"/>
  <rect x="850" y="394" width="100" height="22" rx="4" fill="#FAFAFA" stroke="#E0E0E0"/>
  <rect x="70" y="446" width="1060" height="56" rx="0" fill="#FFFFFF" stroke="#EEEEEE"/>
  <rect x="90" y="466" width="140" height="14" rx="2" fill="#333333"/>
  <rect x="250" y="466" width="100" height="14" rx="2" fill="#666666"/>
  <rect x="450" y="466" width="70" height="14" rx="2" fill="#666666"/>
  <rect x="650" y="462" width="80" height="22" rx="4" fill="#E8F5E9"/>
  <rect x="850" y="462" width="100" height="22" rx="4" fill="#FAFAFA" stroke="#E0E0E0"/>
  <rect x="70" y="514" width="1060" height="56" rx="0" fill="#FFFFFF" stroke="#EEEEEE"/>
  <rect x="70" y="582" width="1060" height="56" rx="0" fill="#FFFFFF" stroke="#EEEEEE"/>
  <rect x="70" y="650" width="1060" height="56" rx="0" fill="#FFFFFF" stroke="#EEEEEE"/>
  <text x="600" y="760" font-family="system-ui, sans-serif" font-size="13" fill="#AAAAAA" text-anchor="middle">Core workflow screen</text>
</svg>

