<svg width="1200" height="800" viewBox="0 0 1200 800" fill="none" xmlns="http://www.w3.org/2000/svg">
  <rect width="1200" height="800" fill="#F8F8F8"/>
  <rect x="60" y="60" width="340" height="320" rx="6" fill="#FFFFFF" stroke="#E5E5E5"/>
  <rect x="80" y="80" width="120" height="14" rx="2" fill="#333333"/>
  <rect x="80" y="110" width="300" height="40" rx="4" fill="#FAFAFA" stroke="#EEEEEE"/>
  <rect x="80" y="166" width="300" height="40" rx="4" fill="#FAFAFA" stroke="#EEEEEE"/>
  <rect x="80" y="222" width="300" height="40" rx="4" fill="#FAFAFA" stroke="#EEEEEE"/>
  <rect x="80" y="278" width="140" height="36" rx="4" fill="#333333"/>
  <rect x="240" y="278" width="140" height="36" rx="4" fill="#FAFAFA" stroke="#EEEEEE"/>
  <rect x="430" y="60" width="340" height="320" rx="6" fill="#FFFFFF" stroke="#E5E5E5"/>
  <rect x="450" y="80" width="100" height="14" rx="2" fill="#333333"/>
  <rect x="450" y="110" width="300" height="80" rx="4" fill="#F0F0F0"/>
  <rect x="450" y="206" width="300" height="80" rx="4" fill="#F0F0F0"/>
  <rect x="450" y="302" width="80" height="28" rx="4" fill="#E0E0E0"/>
  <rect x="800" y="60" width="340" height="320" rx="6" fill="#FFFFFF" stroke="#E5E5E5"/>
  <rect x="820" y="80" width="80" height="14" rx="2" fill="#333333"/>
  <circle cx="970" cy="200" r="80" stroke="#E0E0E0" stroke-width="16" fill="none"/>
  <circle cx="970" cy="200" r="80" stroke="#333333" stroke-width="16" fill="none" stroke-dasharray="125.6 502.4" transform="rotate(-90 970 200)"/>
  <rect x="820" y="310" width="160" height="10" rx="2" fill="#CCCCCC"/>
  <rect x="820" y="330" width="120" height="10" rx="2" fill="#EEEEEE"/>
  <rect x="60" y="420" width="520" height="320" rx="6" fill="#FFFFFF" stroke="#E5E5E5"/>
  <rect x="80" y="440" width="140" height="14" rx="2" fill="#333333"/>
  <rect x="80" y="470" width="480" height="32" rx="2" fill="#FAFAFA"/>
  <rect x="100" y="480" width="60" height="12" rx="2" fill="#AAAAAA"/>
  <rect x="200" y="480" width="80" height="12" rx="2" fill="#AAAAAA"/>
  <rect x="320" y="480" width="60" height="12" rx="2" fill="#AAAAAA"/>
  <rect x="80" y="518" width="480" height="28" rx="2" fill="#FAFAFA" stroke="#EEEEEE"/>
  <rect x="80" y="556" width="480" height="28" rx="2" fill="#FAFAFA" stroke="#EEEEEE"/>
  <rect x="80" y="594" width="480" height="28" rx="2" fill="#FAFAFA" stroke="#EEEEEE"/>
  <rect x="80" y="632" width="480" height="28" rx="2" fill="#FAFAFA" stroke="#EEEEEE"/>
  <rect x="620" y="420" width="520" height="320" rx="6" fill="#FFFFFF" stroke="#E5E5E5"/>
  <rect x="640" y="440" width="120" height="14" rx="2" fill="#333333"/>
  <rect x="640" y="480" width="200" height="120" rx="4" fill="#F0F0F0"/>
  <rect x="860" y="480" width="260" height="56" rx="4" fill="#FAFAFA" stroke="#EEEEEE"/>
  <rect x="860" y="548" width="260" height="56" rx="4" fill="#FAFAFA" stroke="#EEEEEE"/>
  <rect x="640" y="620" width="480" height="100" rx="4" fill="#FAFAFA" stroke="#EEEEEE"/>
  <text x="600" y="770" font-family="system-ui, sans-serif" font-size="13" fill="#AAAAAA" text-anchor="middle">UI patterns and components</text>
</svg>

