<svg width="1200" height="800" viewBox="0 0 1200 800" fill="none" xmlns="http://www.w3.org/2000/svg">
  <rect width="1200" height="800" fill="#F5F5F5"/>
  
  <!-- Component grid -->
  <rect x="60" y="40" width="1080" height="720" rx="8" fill="#FFFFFF" stroke="#E0E0E0" stroke-width="1"/>
  
  <!-- Title -->
  <rect x="100" y="80" width="240" height="20" rx="3" fill="#333333"/>
  <rect x="100" y="110" width="160" height="12" rx="2" fill="#999999"/>
  
  <!-- Chart components row 1 -->
  <rect x="100" y="160" width="320" height="200" rx="8" fill="#FAFAFA" stroke="#EEEEEE" stroke-width="1"/>
  <!-- Line chart mockup -->
  <polyline points="130,320 180,280 230,300 280,260 330,240 380,270" stroke="#333333" stroke-width="2" fill="none"/>
  <circle cx="130" cy="320" r="4" fill="#333333"/>
  <circle cx="180" cy="280" r="4" fill="#333333"/>
  <circle cx="230" cy="300" r="4" fill="#333333"/>
  <circle cx="280" cy="260" r="4" fill="#333333"/>
  <circle cx="330" cy="240" r="4" fill="#333333"/>
  <circle cx="380" cy="270" r="4" fill="#333333"/>
  <rect x="120" y="180" width="80" height="10" rx="2" fill="#666666"/>
  
  <rect x="440" y="160" width="320" height="200" rx="8" fill="#FAFAFA" stroke="#EEEEEE" stroke-width="1"/>
  <!-- Bar chart mockup -->
  <rect x="480" y="280" width="40" height="60" rx="2" fill="#333333"/>
  <rect x="540" y="240" width="40" height="100" rx="2" fill="#333333"/>
  <rect x="600" y="260" width="40" height="80" rx="2" fill="#333333"/>
  <rect x="660" y="220" width="40" height="120" rx="2" fill="#333333"/>
  <rect x="460" y="180" width="80" height="10" rx="2" fill="#666666"/>
  
  <rect x="780" y="160" width="320" height="200" rx="8" fill="#FAFAFA" stroke="#EEEEEE" stroke-width="1"/>
  <!-- Donut chart mockup -->
  <circle cx="940" cy="280" r="60" stroke="#E0E0E0" stroke-width="20" fill="none"/>
  <circle cx="940" cy="280" r="60" stroke="#333333" stroke-width="20" fill="none" stroke-dasharray="188.5 377" transform="rotate(-90 940 280)"/>
  <rect x="800" y="180" width="80" height="10" rx="2" fill="#666666"/>
  
  <!-- Chart components row 2 -->
  <rect x="100" y="390" width="500" height="200" rx="8" fill="#FAFAFA" stroke="#EEEEEE" stroke-width="1"/>
  <!-- Area chart mockup -->
  <path d="M130 550 L200 500 L280 520 L360 470 L440 490 L520 440 L560 460 L560 550 Z" fill="#E0E0E0"/>
  <polyline points="130,550 200,500 280,520 360,470 440,490 520,440 560,460" stroke="#333333" stroke-width="2" fill="none"/>
  <rect x="120" y="410" width="100" height="10" rx="2" fill="#666666"/>
  
  <rect x="620" y="390" width="480" height="200" rx="8" fill="#FAFAFA" stroke="#EEEEEE" stroke-width="1"/>
  <!-- Table mockup -->
  <rect x="640" y="430" width="440" height="24" rx="2" fill="#F0F0F0"/>
  <rect x="656" y="438" width="60" height="8" rx="1" fill="#999999"/>
  <rect x="780" y="438" width="80" height="8" rx="1" fill="#999999"/>
  <rect x="920" y="438" width="60" height="8" rx="1" fill="#999999"/>
  
  <rect x="656" y="470" width="80" height="8" rx="1" fill="#CCCCCC"/>
  <rect x="780" y="470" width="100" height="8" rx="1" fill="#CCCCCC"/>
  <rect x="920" y="470" width="50" height="8" rx="1" fill="#CCCCCC"/>
  
  <rect x="656" y="498" width="70" height="8" rx="1" fill="#CCCCCC"/>
  <rect x="780" y="498" width="90" height="8" rx="1" fill="#CCCCCC"/>
  <rect x="920" y="498" width="70" height="8" rx="1" fill="#CCCCCC"/>
  
  <rect x="656" y="526" width="90" height="8" rx="1" fill="#CCCCCC"/>
  <rect x="780" y="526" width="70" height="8" rx="1" fill="#CCCCCC"/>
  <rect x="920" y="526" width="60" height="8" rx="1" fill="#CCCCCC"/>
  
  <rect x="640" y="410" width="80" height="10" rx="2" fill="#666666"/>
  
  <!-- Footer bar -->
  <rect x="100" y="620" width="1000" height="60" rx="6" fill="#FAFAFA"/>
  <rect x="130" y="642" width="120" height="16" rx="4" fill="#E0E0E0"/>
  <rect x="980" y="642" width="100" height="16" rx="4" fill="#333333"/>
  
  <!-- Placeholder text -->
  <text x="600" y="750" font-family="system-ui, sans-serif" font-size="14" fill="#999999" text-anchor="middle">Data Visualization Components — Replace with actual screenshot</text>
</svg>

