<svg width="1200" height="800" viewBox="0 0 1200 800" fill="none" xmlns="http://www.w3.org/2000/svg">
  <rect width="1200" height="800" fill="#F5F5F5"/>
  
  <!-- Accessibility audit panel -->
  <rect x="60" y="40" width="1080" height="720" rx="8" fill="#FFFFFF" stroke="#E0E0E0" stroke-width="1"/>
  
  <!-- Header -->
  <rect x="80" y="60" width="200" height="20" rx="3" fill="#333333"/>
  <rect x="80" y="90" width="300" height="12" rx="2" fill="#999999"/>
  
  <!-- Score cards -->
  <rect x="80" y="130" width="200" height="120" rx="8" fill="#E8F5E9" stroke="#A5D6A7" stroke-width="1"/>
  <circle cx="180" cy="190" r="30" stroke="#4CAF50" stroke-width="6" fill="none"/>
  <text x="180" y="198" font-family="system-ui, sans-serif" font-size="20" font-weight="bold" fill="#2E7D32" text-anchor="middle">98</text>
  <rect x="120" y="230" width="120" height="8" rx="2" fill="#4CAF50"/>
  
  <rect x="300" y="130" width="200" height="120" rx="8" fill="#E8F5E9" stroke="#A5D6A7" stroke-width="1"/>
  <circle cx="400" cy="190" r="30" stroke="#4CAF50" stroke-width="6" fill="none"/>
  <text x="400" y="198" font-family="system-ui, sans-serif" font-size="20" font-weight="bold" fill="#2E7D32" text-anchor="middle">100</text>
  <rect x="340" y="230" width="120" height="8" rx="2" fill="#4CAF50"/>
  
  <rect x="520" y="130" width="200" height="120" rx="8" fill="#E8F5E9" stroke="#A5D6A7" stroke-width="1"/>
  <circle cx="620" cy="190" r="30" stroke="#4CAF50" stroke-width="6" fill="none"/>
  <text x="620" y="198" font-family="system-ui, sans-serif" font-size="20" font-weight="bold" fill="#2E7D32" text-anchor="middle">95</text>
  <rect x="560" y="230" width="120" height="8" rx="2" fill="#4CAF50"/>
  
  <rect x="740" y="130" width="200" height="120" rx="8" fill="#E8F5E9" stroke="#A5D6A7" stroke-width="1"/>
  <circle cx="840" cy="190" r="30" stroke="#4CAF50" stroke-width="6" fill="none"/>
  <text x="840" y="198" font-family="system-ui, sans-serif" font-size="20" font-weight="bold" fill="#2E7D32" text-anchor="middle">100</text>
  <rect x="780" y="230" width="120" height="8" rx="2" fill="#4CAF50"/>
  
  <!-- Checklist section -->
  <rect x="80" y="280" width="180" height="16" rx="2" fill="#333333"/>
  
  <!-- Checklist items -->
  <rect x="80" y="316" width="860" height="44" rx="4" fill="#FAFAFA"/>
  <circle cx="110" cy="338" r="10" fill="#4CAF50"/>
  <path d="M105 338 L108 341 L115 334" stroke="#FFFFFF" stroke-width="2" fill="none" stroke-linecap="round" stroke-linejoin="round"/>
  <rect x="136" y="330" width="300" height="10" rx="2" fill="#333333"/>
  <rect x="136" y="346" width="200" height="8" rx="2" fill="#999999"/>
  
  <rect x="80" y="372" width="860" height="44" rx="4" fill="#FAFAFA"/>
  <circle cx="110" cy="394" r="10" fill="#4CAF50"/>
  <path d="M105 394 L108 397 L115 390" stroke="#FFFFFF" stroke-width="2" fill="none" stroke-linecap="round" stroke-linejoin="round"/>
  <rect x="136" y="386" width="280" height="10" rx="2" fill="#333333"/>
  <rect x="136" y="402" width="180" height="8" rx="2" fill="#999999"/>
  
  <rect x="80" y="428" width="860" height="44" rx="4" fill="#FAFAFA"/>
  <circle cx="110" cy="450" r="10" fill="#4CAF50"/>
  <path d="M105 450 L108 453 L115 446" stroke="#FFFFFF" stroke-width="2" fill="none" stroke-linecap="round" stroke-linejoin="round"/>
  <rect x="136" y="442" width="320" height="10" rx="2" fill="#333333"/>
  <rect x="136" y="458" width="220" height="8" rx="2" fill="#999999"/>
  
  <rect x="80" y="484" width="860" height="44" rx="4" fill="#FAFAFA"/>
  <circle cx="110" cy="506" r="10" fill="#4CAF50"/>
  <path d="M105 506 L108 509 L115 502" stroke="#FFFFFF" stroke-width="2" fill="none" stroke-linecap="round" stroke-linejoin="round"/>
  <rect x="136" y="498" width="260" height="10" rx="2" fill="#333333"/>
  <rect x="136" y="514" width="160" height="8" rx="2" fill="#999999"/>
  
  <rect x="80" y="540" width="860" height="44" rx="4" fill="#FAFAFA"/>
  <circle cx="110" cy="562" r="10" fill="#4CAF50"/>
  <path d="M105 562 L108 565 L115 558" stroke="#FFFFFF" stroke-width="2" fill="none" stroke-linecap="round" stroke-linejoin="round"/>
  <rect x="136" y="554" width="340" height="10" rx="2" fill="#333333"/>
  <rect x="136" y="570" width="200" height="8" rx="2" fill="#999999"/>
  
  <!-- WCAG badge -->
  <rect x="960" y="60" width="160" height="40" rx="6" fill="#1E88E5"/>
  <text x="1040" y="86" font-family="system-ui, sans-serif" font-size="14" font-weight="bold" fill="#FFFFFF" text-anchor="middle">WCAG 2.1 AA</text>
  
  <!-- Placeholder text -->
  <text x="600" y="750" font-family="system-ui, sans-serif" font-size="14" fill="#999999" text-anchor="middle">Accessibility Compliance — Replace with actual screenshot</text>
</svg>

