<svg width="1200" height="800" viewBox="0 0 1200 800" fill="none" xmlns="http://www.w3.org/2000/svg">
  <rect width="1200" height="800" fill="#F8F8F8"/>
  <rect x="40" y="40" width="1120" height="720" rx="4" fill="#FFFFFF" stroke="#E5E5E5"/>
  <rect x="40" y="40" width="240" height="720" fill="#FAFAFA"/>
  <rect x="70" y="70" width="120" height="24" rx="2" fill="#333333"/>
  <rect x="70" y="120" width="180" height="36" rx="4" fill="#333333"/>
  <rect x="70" y="180" width="160" height="12" rx="2" fill="#CCCCCC"/>
  <rect x="70" y="204" width="140" height="12" rx="2" fill="#EEEEEE"/>
  <rect x="70" y="228" width="160" height="12" rx="2" fill="#EEEEEE"/>
  <rect x="70" y="252" width="120" height="12" rx="2" fill="#EEEEEE"/>
  <rect x="70" y="300" width="80" height="10" rx="2" fill="#AAAAAA"/>
  <rect x="70" y="324" width="160" height="12" rx="2" fill="#EEEEEE"/>
  <rect x="70" y="348" width="140" height="12" rx="2" fill="#EEEEEE"/>
  <rect x="310" y="70" width="200" height="24" rx="2" fill="#333333"/>
  <rect x="310" y="110" width="300" height="14" rx="2" fill="#999999"/>
  <rect x="310" y="160" width="820" height="200" rx="6" fill="#FAFAFA" stroke="#EEEEEE"/>
  <rect x="340" y="190" width="200" height="16" rx="2" fill="#333333"/>
  <rect x="340" y="220" width="400" height="12" rx="2" fill="#CCCCCC"/>
  <rect x="340" y="250" width="300" height="12" rx="2" fill="#CCCCCC"/>
  <rect x="340" y="300" width="100" height="32" rx="4" fill="#333333"/>
  <rect x="310" y="390" width="260" height="160" rx="6" fill="#FAFAFA" stroke="#EEEEEE"/>
  <rect x="590" y="390" width="260" height="160" rx="6" fill="#FAFAFA" stroke="#EEEEEE"/>
  <rect x="870" y="390" width="260" height="160" rx="6" fill="#FAFAFA" stroke="#EEEEEE"/>
  <rect x="310" y="580" width="260" height="160" rx="6" fill="#FAFAFA" stroke="#EEEEEE"/>
  <rect x="590" y="580" width="260" height="160" rx="6" fill="#FAFAFA" stroke="#EEEEEE"/>
  <rect x="870" y="580" width="260" height="160" rx="6" fill="#FAFAFA" stroke="#EEEEEE"/>
  <text x="600" y="770" font-family="system-ui, sans-serif" font-size="13" fill="#AAAAAA" text-anchor="middle">Core product interface</text>
</svg>

