<svg width="1200" height="800" viewBox="0 0 1200 800" fill="none" xmlns="http://www.w3.org/2000/svg">
  <rect width="1200" height="800" fill="#FFFFFF"/>
  <rect x="80" y="40" width="1040" height="60" fill="#FFFFFF"/>
  <rect x="80" y="50" width="100" height="24" rx="2" fill="#333333"/>
  <rect x="500" y="54" width="60" height="14" rx="2" fill="#666666"/>
  <rect x="590" y="54" width="60" height="14" rx="2" fill="#666666"/>
  <rect x="680" y="54" width="60" height="14" rx="2" fill="#666666"/>
  <rect x="770" y="54" width="60" height="14" rx="2" fill="#666666"/>
  <rect x="1020" y="46" width="100" height="36" rx="4" fill="#333333"/>
  <rect x="80" y="140" width="500" height="48" rx="2" fill="#333333"/>
  <rect x="80" y="210" width="600" height="20" rx="2" fill="#888888"/>
  <rect x="80" y="260" width="140" height="44" rx="4" fill="#333333"/>
  <rect x="240" y="260" width="140" height="44" rx="4" fill="#FAFAFA" stroke="#E0E0E0"/>
  <rect x="80" y="360" width="1040" height="400" rx="8" fill="#F5F5F5"/>
  <rect x="120" y="400" width="300" height="320" rx="6" fill="#FFFFFF" stroke="#EEEEEE"/>
  <rect x="150" y="440" width="100" height="80" rx="40" fill="#F0F0F0"/>
  <rect x="150" y="540" width="120" height="16" rx="2" fill="#333333"/>
  <rect x="150" y="570" width="200" height="12" rx="2" fill="#AAAAAA"/>
  <rect x="150" y="620" width="80" height="28" rx="4" fill="#333333"/>
  <rect x="250" y="620" width="80" height="28" rx="4" fill="#FAFAFA" stroke="#E0E0E0"/>
  <rect x="460" y="400" width="300" height="320" rx="6" fill="#FFFFFF" stroke="#EEEEEE"/>
  <rect x="490" y="440" width="100" height="80" rx="40" fill="#F0F0F0"/>
  <rect x="490" y="540" width="140" height="16" rx="2" fill="#333333"/>
  <rect x="490" y="570" width="180" height="12" rx="2" fill="#AAAAAA"/>
  <rect x="490" y="620" width="80" height="28" rx="4" fill="#333333"/>
  <rect x="590" y="620" width="80" height="28" rx="4" fill="#FAFAFA" stroke="#E0E0E0"/>
  <rect x="800" y="400" width="300" height="320" rx="6" fill="#FFFFFF" stroke="#EEEEEE"/>
  <rect x="830" y="440" width="100" height="80" rx="40" fill="#F0F0F0"/>
  <rect x="830" y="540" width="100" height="16" rx="2" fill="#333333"/>
  <rect x="830" y="570" width="220" height="12" rx="2" fill="#AAAAAA"/>
  <rect x="830" y="620" width="80" height="28" rx="4" fill="#333333"/>
  <rect x="930" y="620" width="80" height="28" rx="4" fill="#FAFAFA" stroke="#E0E0E0"/>
  <text x="600" y="785" font-family="system-ui, sans-serif" font-size="13" fill="#AAAAAA" text-anchor="middle">Website homepage</text>
</svg>

