<svg width="1200" height="800" viewBox="0 0 1200 800" fill="none" xmlns="http://www.w3.org/2000/svg">
  <rect width="1200" height="800" fill="#F8F8F8"/>
  <rect x="40" y="40" width="360" height="340" rx="4" fill="#FFFFFF" stroke="#E5E5E5"/>
  <rect x="40" y="40" width="360" height="50" fill="#1A237E"/>
  <rect x="60" y="55" width="80" height="20" rx="2" fill="#FFFFFF"/>
  <rect x="320" y="58" width="60" height="14" rx="2" fill="rgba(255,255,255,0.5)"/>
  <rect x="60" y="110" width="200" height="20" rx="2" fill="#333333"/>
  <rect x="60" y="145" width="300" height="12" rx="2" fill="#999999"/>
  <rect x="60" y="180" width="320" height="100" rx="6" fill="#FAFAFA" stroke="#EEEEEE"/>
  <rect x="80" y="200" width="160" height="14" rx="2" fill="#333333"/>
  <rect x="80" y="226" width="260" height="12" rx="2" fill="#CCCCCC"/>
  <rect x="80" y="250" width="100" height="24" rx="4" fill="#1A237E"/>
  <rect x="60" y="300" width="150" height="40" rx="4" fill="#1A237E"/>
  <rect x="230" y="300" width="150" height="40" rx="4" fill="#FAFAFA" stroke="#1A237E"/>
  <rect x="420" y="40" width="360" height="340" rx="4" fill="#FFFFFF" stroke="#E5E5E5"/>
  <rect x="420" y="40" width="360" height="50" fill="#FAFAFA"/>
  <rect x="440" y="55" width="80" height="20" rx="2" fill="#333333"/>
  <rect x="700" y="55" width="60" height="20" rx="10" fill="#E0E0E0"/>
  <rect x="440" y="110" width="160" height="16" rx="2" fill="#333333"/>
  <rect x="440" y="140" width="320" height="80" rx="6" fill="#FAFAFA" stroke="#EEEEEE"/>
  <rect x="440" y="240" width="320" height="80" rx="6" fill="#FAFAFA" stroke="#EEEEEE"/>
  <rect x="440" y="340" width="320" height="24" rx="4" fill="#333333"/>
  <rect x="800" y="40" width="360" height="340" rx="4" fill="#FFFFFF" stroke="#E5E5E5"/>
  <rect x="800" y="40" width="360" height="50" fill="#00695C"/>
  <rect x="820" y="55" width="100" height="20" rx="2" fill="#FFFFFF"/>
  <rect x="820" y="110" width="180" height="18" rx="2" fill="#333333"/>
  <rect x="820" y="145" width="320" height="60" rx="6" fill="#E0F2F1"/>
  <rect x="840" y="165" width="200" height="14" rx="2" fill="#00695C"/>
  <rect x="820" y="225" width="320" height="60" rx="6" fill="#FAFAFA" stroke="#EEEEEE"/>
  <rect x="820" y="305" width="320" height="60" rx="6" fill="#FAFAFA" stroke="#EEEEEE"/>
  <rect x="40" y="400" width="360" height="360" rx="4" fill="#FFFFFF" stroke="#E5E5E5"/>
  <rect x="60" y="420" width="140" height="16" rx="2" fill="#333333"/>
  <rect x="60" y="450" width="320" height="44" rx="4" fill="#FAFAFA" stroke="#E0E0E0"/>
  <rect x="80" y="466" width="200" height="12" rx="2" fill="#CCCCCC"/>
  <rect x="60" y="510" width="320" height="44" rx="4" fill="#FAFAFA" stroke="#E0E0E0"/>
  <rect x="60" y="570" width="320" height="44" rx="4" fill="#FAFAFA" stroke="#E0E0E0"/>
  <rect x="60" y="640" width="150" height="44" rx="4" fill="#333333"/>
  <rect x="230" y="640" width="150" height="44" rx="4" fill="#FAFAFA" stroke="#E0E0E0"/>
  <rect x="60" y="710" width="320" height="30" rx="4" fill="#F5F5F5"/>
  <rect x="420" y="400" width="740" height="360" rx="4" fill="#FFFFFF" stroke="#E5E5E5"/>
  <rect x="440" y="420" width="120" height="16" rx="2" fill="#333333"/>
  <rect x="440" y="450" width="700" height="36" fill="#F5F5F5"/>
  <rect x="460" y="460" width="60" height="14" rx="2" fill="#888888"/>
  <rect x="560" y="460" width="80" height="14" rx="2" fill="#888888"/>
  <rect x="680" y="460" width="60" height="14" rx="2" fill="#888888"/>
  <rect x="780" y="460" width="80" height="14" rx="2" fill="#888888"/>
  <rect x="900" y="460" width="60" height="14" rx="2" fill="#888888"/>
  <rect x="440" y="500" width="700" height="40" fill="#FFFFFF" stroke="#EEEEEE"/>
  <rect x="440" y="550" width="700" height="40" fill="#FAFAFA" stroke="#EEEEEE"/>
  <rect x="440" y="600" width="700" height="40" fill="#FFFFFF" stroke="#EEEEEE"/>
  <rect x="440" y="650" width="700" height="40" fill="#FAFAFA" stroke="#EEEEEE"/>
  <rect x="440" y="700" width="700" height="40" fill="#FFFFFF" stroke="#EEEEEE"/>
  <text x="600" y="780" font-family="system-ui, sans-serif" font-size="13" fill="#AAAAAA" text-anchor="middle">Example implementations across products</text>
</svg>

