<svg width="1200" height="800" viewBox="0 0 1200 800" fill="none" xmlns="http://www.w3.org/2000/svg">
  <rect width="1200" height="800" fill="#F8F8F8"/>
  <rect x="40" y="40" width="1120" height="720" rx="4" fill="#FFFFFF" stroke="#E5E5E5"/>
  <rect x="40" y="40" width="240" height="720" fill="#FAFAFA"/>
  <rect x="70" y="70" width="100" height="20" rx="2" fill="#333333"/>
  <rect x="70" y="110" width="180" height="12" rx="2" fill="#EEEEEE"/>
  <rect x="60" y="138" width="200" height="32" rx="4" fill="#E3F2FD"/>
  <rect x="80" y="148" width="100" height="12" rx="2" fill="#1565C0"/>
  <rect x="70" y="190" width="160" height="12" rx="2" fill="#CCCCCC"/>
  <rect x="70" y="218" width="140" height="12" rx="2" fill="#CCCCCC"/>
  <rect x="70" y="246" width="160" height="12" rx="2" fill="#CCCCCC"/>
  <rect x="70" y="290" width="60" height="10" rx="2" fill="#AAAAAA"/>
  <rect x="70" y="316" width="140" height="12" rx="2" fill="#CCCCCC"/>
  <rect x="70" y="344" width="120" height="12" rx="2" fill="#CCCCCC"/>
  <rect x="310" y="70" width="160" height="20" rx="2" fill="#333333"/>
  <rect x="310" y="110" width="400" height="14" rx="2" fill="#999999"/>
  <rect x="310" y="160" width="200" height="180" rx="8" fill="#FAFAFA" stroke="#EEEEEE"/>
  <rect x="330" y="180" width="160" height="40" rx="4" fill="#333333"/>
  <rect x="330" y="240" width="80" height="12" rx="2" fill="#AAAAAA"/>
  <rect x="330" y="264" width="140" height="12" rx="2" fill="#CCCCCC"/>
  <rect x="330" y="300" width="60" height="24" rx="4" fill="#E0E0E0"/>
  <rect x="530" y="160" width="200" height="180" rx="8" fill="#FAFAFA" stroke="#EEEEEE"/>
  <rect x="550" y="180" width="160" height="40" rx="4" fill="#FAFAFA" stroke="#333333"/>
  <rect x="550" y="240" width="100" height="12" rx="2" fill="#AAAAAA"/>
  <rect x="550" y="264" width="120" height="12" rx="2" fill="#CCCCCC"/>
  <rect x="550" y="300" width="60" height="24" rx="4" fill="#E0E0E0"/>
  <rect x="750" y="160" width="200" height="180" rx="8" fill="#FAFAFA" stroke="#EEEEEE"/>
  <rect x="770" y="180" width="160" height="40" rx="20" fill="#333333"/>
  <rect x="770" y="240" width="60" height="12" rx="2" fill="#AAAAAA"/>
  <rect x="770" y="264" width="100" height="12" rx="2" fill="#CCCCCC"/>
  <rect x="770" y="300" width="60" height="24" rx="4" fill="#E0E0E0"/>
  <rect x="970" y="160" width="160" height="180" rx="8" fill="#FAFAFA" stroke="#EEEEEE"/>
  <rect x="990" y="180" width="120" height="40" rx="4" fill="#E8F5E9"/>
  <rect x="990" y="240" width="80" height="12" rx="2" fill="#AAAAAA"/>
  <rect x="990" y="264" width="100" height="12" rx="2" fill="#CCCCCC"/>
  <rect x="990" y="300" width="60" height="24" rx="4" fill="#E0E0E0"/>
  <rect x="310" y="370" width="200" height="180" rx="8" fill="#FAFAFA" stroke="#EEEEEE"/>
  <rect x="530" y="370" width="200" height="180" rx="8" fill="#FAFAFA" stroke="#EEEEEE"/>
  <rect x="750" y="370" width="200" height="180" rx="8" fill="#FAFAFA" stroke="#EEEEEE"/>
  <rect x="970" y="370" width="160" height="180" rx="8" fill="#FAFAFA" stroke="#EEEEEE"/>
  <rect x="310" y="580" width="200" height="160" rx="8" fill="#FAFAFA" stroke="#EEEEEE"/>
  <rect x="530" y="580" width="200" height="160" rx="8" fill="#FAFAFA" stroke="#EEEEEE"/>
  <rect x="750" y="580" width="200" height="160" rx="8" fill="#FAFAFA" stroke="#EEEEEE"/>
  <rect x="970" y="580" width="160" height="160" rx="8" fill="#FAFAFA" stroke="#EEEEEE"/>
  <text x="600" y="770" font-family="system-ui, sans-serif" font-size="13" fill="#AAAAAA" text-anchor="middle">Component library overview</text>
</svg>

