<svg width="1200" height="800" viewBox="0 0 1200 800" fill="none" xmlns="http://www.w3.org/2000/svg">
  <rect width="1200" height="800" fill="#F8F8F8"/>
  <rect x="40" y="40" width="1120" height="720" rx="4" fill="#FFFFFF" stroke="#E5E5E5"/>
  <rect x="40" y="40" width="280" height="720" fill="#FAFAFA"/>
  <rect x="70" y="70" width="120" height="20" rx="2" fill="#333333"/>
  <rect x="70" y="110" width="60" height="10" rx="2" fill="#AAAAAA"/>
  <rect x="70" y="134" width="200" height="12" rx="2" fill="#CCCCCC"/>
  <rect x="70" y="158" width="180" height="12" rx="2" fill="#CCCCCC"/>
  <rect x="70" y="182" width="160" height="12" rx="2" fill="#CCCCCC"/>
  <rect x="70" y="220" width="80" height="10" rx="2" fill="#AAAAAA"/>
  <rect x="70" y="244" width="200" height="12" rx="2" fill="#CCCCCC"/>
  <rect x="70" y="268" width="140" height="12" rx="2" fill="#CCCCCC"/>
  <rect x="70" y="292" width="180" height="12" rx="2" fill="#CCCCCC"/>
  <rect x="70" y="330" width="100" height="10" rx="2" fill="#AAAAAA"/>
  <rect x="70" y="354" width="160" height="12" rx="2" fill="#CCCCCC"/>
  <rect x="70" y="378" width="200" height="12" rx="2" fill="#CCCCCC"/>
  <rect x="350" y="70" width="200" height="28" rx="2" fill="#333333"/>
  <rect x="350" y="120" width="780" height="1" fill="#EEEEEE"/>
  <rect x="350" y="150" width="780" height="200" rx="6" fill="#F5F5F5"/>
  <rect x="380" y="180" width="720" height="24" rx="4" fill="#FFFFFF"/>
  <text x="400" y="198" font-family="monospace" font-size="14" fill="#666666">&lt;Button variant="primary"&gt;Submit&lt;/Button&gt;</text>
  <rect x="380" y="220" width="720" height="24" rx="4" fill="#FFFFFF"/>
  <text x="400" y="238" font-family="monospace" font-size="14" fill="#666666">&lt;Button variant="secondary"&gt;Cancel&lt;/Button&gt;</text>
  <rect x="380" y="260" width="720" height="24" rx="4" fill="#FFFFFF"/>
  <text x="400" y="278" font-family="monospace" font-size="14" fill="#666666">&lt;Button variant="tertiary"&gt;Learn More&lt;/Button&gt;</text>
  <rect x="380" y="300" width="720" height="24" rx="4" fill="#FFFFFF"/>
  <text x="400" y="318" font-family="monospace" font-size="14" fill="#666666">&lt;Button disabled&gt;Disabled&lt;/Button&gt;</text>
  <rect x="350" y="380" width="120" height="14" rx="2" fill="#333333"/>
  <rect x="350" y="410" width="780" height="80" rx="6" fill="#FAFAFA" stroke="#EEEEEE"/>
  <rect x="380" y="436" width="100" height="36" rx="4" fill="#333333"/>
  <rect x="500" y="436" width="100" height="36" rx="4" fill="#FAFAFA" stroke="#333333"/>
  <rect x="620" y="436" width="100" height="36" rx="4" fill="#FAFAFA" stroke="#CCCCCC"/>
  <rect x="740" y="436" width="100" height="36" rx="4" fill="#E0E0E0"/>
  <rect x="350" y="520" width="80" height="14" rx="2" fill="#333333"/>
  <rect x="350" y="550" width="780" height="160" rx="6" fill="#FAFAFA" stroke="#EEEEEE"/>
  <rect x="380" y="580" width="200" height="16" rx="2" fill="#888888"/>
  <rect x="380" y="610" width="700" height="12" rx="2" fill="#CCCCCC"/>
  <rect x="380" y="634" width="600" height="12" rx="2" fill="#CCCCCC"/>
  <rect x="380" y="658" width="650" height="12" rx="2" fill="#CCCCCC"/>
  <rect x="380" y="682" width="500" height="12" rx="2" fill="#CCCCCC"/>
  <text x="600" y="770" font-family="system-ui, sans-serif" font-size="13" fill="#AAAAAA" text-anchor="middle">System documentation</text>
</svg>

