<svg width="1200" height="800" viewBox="0 0 1200 800" fill="none" xmlns="http://www.w3.org/2000/svg">
  <rect width="1200" height="800" fill="#F8F8F8"/>
  <rect x="400" y="40" width="400" height="720" rx="32" fill="#1A1A1A"/>
  <rect x="412" y="52" width="376" height="696" rx="24" fill="#FFFFFF"/>
  <rect x="500" y="60" width="200" height="24" rx="12" fill="#1A1A1A"/>
  <rect x="432" y="100" width="40" height="40" rx="4" fill="#FAFAFA" stroke="#EEEEEE"/>
  <rect x="440" y="110" width="24" height="2" rx="1" fill="#999999"/>
  <rect x="440" y="116" width="24" height="2" rx="1" fill="#999999"/>
  <rect x="440" y="122" width="24" height="2" rx="1" fill="#999999"/>
  <rect x="540" y="108" width="120" height="20" rx="2" fill="#333333"/>
  <rect x="720" y="108" width="40" height="20" rx="4" fill="#FAFAFA" stroke="#EEEEEE"/>
  <rect x="432" y="160" width="336" height="1" fill="#EEEEEE"/>
  <rect x="432" y="190" width="100" height="16" rx="2" fill="#333333"/>
  <rect x="432" y="220" width="336" height="120" rx="8" fill="#E3F2FD"/>
  <rect x="452" y="240" width="40" height="40" rx="20" fill="#FFFFFF"/>
  <rect x="512" y="248" width="160" height="14" rx="2" fill="#1565C0"/>
  <rect x="512" y="270" width="200" height="12" rx="2" fill="#666666"/>
  <rect x="452" y="300" width="140" height="28" rx="4" fill="#1565C0"/>
  <rect x="432" y="360" width="336" height="100" rx="8" fill="#FAFAFA" stroke="#EEEEEE"/>
  <rect x="452" y="380" width="80" height="12" rx="2" fill="#AAAAAA"/>
  <rect x="452" y="402" width="200" height="14" rx="2" fill="#333333"/>
  <rect x="452" y="426" width="160" height="12" rx="2" fill="#666666"/>
  <rect x="432" y="480" width="336" height="100" rx="8" fill="#FAFAFA" stroke="#EEEEEE"/>
  <rect x="452" y="500" width="100" height="12" rx="2" fill="#AAAAAA"/>
  <rect x="452" y="522" width="180" height="14" rx="2" fill="#333333"/>
  <rect x="452" y="546" width="140" height="12" rx="2" fill="#666666"/>
  <rect x="432" y="600" width="336" height="100" rx="8" fill="#FAFAFA" stroke="#EEEEEE"/>
  <rect x="452" y="620" width="120" height="12" rx="2" fill="#AAAAAA"/>
  <rect x="452" y="642" width="220" height="14" rx="2" fill="#333333"/>
  <rect x="452" y="666" width="180" height="12" rx="2" fill="#666666"/>
  <rect x="432" y="716" width="336" height="24" rx="4" fill="#F5F5F5"/>
  <text x="600" y="770" font-family="system-ui, sans-serif" font-size="13" fill="#AAAAAA" text-anchor="middle">Mobile experience</text>
</svg>

