<svg width="46" height="46" viewBox="0 0 46 46" fill="none" xmlns="http://www.w3.org/2000/svg">
<path d="M23 0C35.7025 0 46 10.2975 46 23C46 35.7025 35.7025 46 23 46C10.2975 46 0 35.7025 0 23C0 10.2975 10.2975 0 23 0ZM26.2324 11C25.2758 10.4477 24.0523 10.7758 23.5 11.7324L12 31.6504C11.4477 32.607 11.7758 33.8305 12.7324 34.3828C13.689 34.9348 14.9116 34.6069 15.4639 33.6504L26.9639 13.7324C27.5161 12.7759 27.1888 11.5524 26.2324 11ZM30.6523 14.75C29.935 14.3359 29.0177 14.5816 28.6035 15.2988L21.75 27.1699C21.3358 27.8873 21.5815 28.8045 22.2988 29.2188C23.0163 29.633 23.9334 29.3874 24.3477 28.6699L31.2012 16.7988C31.6154 16.0814 31.3698 15.1642 30.6523 14.75ZM34.4971 17.5C34.0188 17.2239 33.407 17.3879 33.1309 17.8662L29.5 24.1553C29.224 24.6335 29.388 25.2454 29.8662 25.5215C30.3444 25.7973 30.9564 25.6334 31.2324 25.1553L34.8633 18.8662C35.1394 18.388 34.9752 17.7762 34.4971 17.5Z" fill="#2C2C2C"/>
</svg>
