<svg width="256" height="257" viewBox="0 0 256 257" fill="none" xmlns="http://www.w3.org/2000/svg">
<path d="M0 38.5602C0 17.3524 17.1923 0.160156 38.4 0.160156H256V217.76C256 238.968 238.808 256.16 217.6 256.16H0V38.5602Z" fill="#F2F1ED"/>
<path d="M149.387 145.333L193.231 189.177H175.986L132.138 145.333H149.387Z" fill="#17181A" stroke="#F2F1ED" stroke-width="0.384"/>
<path d="M83.6501 79.5965L115.034 110.98H110.566C106.915 110.98 103.271 111.746 100.002 113.194L85.7137 98.9126L85.7137 98.9126L75.0204 88.2193L74.6926 87.8915V88.355V176.856V177.048H74.8846H111.043L123.173 189.177H89.6911H89.4991V189.247H62.4938V67.0733H150.629C157.498 67.0733 163.965 69.1184 169.356 72.6341C174.748 76.157 179.101 81.1537 181.779 87.1149C183.56 91.0865 184.588 95.4836 184.66 100.092L184.661 100.096C184.667 100.287 184.667 100.471 184.667 100.663V101.126L184.668 101.126C184.575 107.888 182.469 114.215 178.927 119.447L178.927 119.447C175.305 124.807 170.191 129.056 164.153 131.613C160.133 133.315 155.704 134.253 151.081 134.253H110.563C110.185 134.253 109.9 134.304 109.647 134.387C109.398 134.469 109.177 134.579 108.978 134.728C108.575 135.015 108.223 135.458 108.012 135.987C107.87 136.338 107.803 136.707 107.803 137.054C107.803 137.403 107.863 137.695 107.98 137.988L107.982 137.993C108.109 138.292 108.286 138.588 108.628 138.927C108.628 138.927 108.628 138.927 108.629 138.927L158.872 189.174H141.626L100.002 147.549C98.5407 146.088 97.4173 144.381 96.6894 142.581L96.6893 142.581C95.9577 140.781 95.6074 138.892 95.6073 137.055C95.6142 134.165 96.4388 131.388 97.9441 128.993L97.9441 128.993C99.4456 126.602 101.672 124.572 104.457 123.335L104.46 123.334C104.67 123.237 104.886 123.151 105.106 123.064L105.159 123.043C105.159 123.043 105.159 123.043 105.159 123.043C105.396 122.95 105.634 122.865 105.882 122.79L105.882 122.79L105.89 122.788C106.117 122.709 106.341 122.646 106.581 122.578L106.598 122.573C106.599 122.573 106.6 122.573 106.6 122.573C107.054 122.456 107.514 122.356 107.985 122.274C108.134 122.25 108.284 122.226 108.438 122.205L108.438 122.205L108.447 122.204C108.486 122.197 108.515 122.191 108.547 122.189L108.556 122.188L108.565 122.186C108.601 122.18 108.632 122.176 108.656 122.176H108.669L108.682 122.174C108.804 122.157 108.923 122.143 109.047 122.129C109.317 122.105 109.577 122.085 109.839 122.075L109.843 122.074C110.078 122.061 110.307 122.057 110.542 122.057H151.071C155.526 122.057 159.607 120.719 163.03 118.409L163.03 118.409C166.45 116.099 169.175 112.823 170.794 108.988L170.794 108.988C171.872 106.428 172.469 103.63 172.469 100.66L172.469 100.294L172.468 100.291C172.43 98.0995 172.054 95.9993 171.401 94.0327L171.401 94.0321C170.74 92.0653 169.796 90.2217 168.609 88.5401L168.609 88.54C166.236 85.1834 162.883 82.5052 159.001 80.9116L159.001 80.9115C156.407 79.8514 153.581 79.2687 150.618 79.2687H83.7859H83.3224L83.6501 79.5965ZM159.143 189.174L159.335 189.366H159.064L159.143 189.174ZM105.827 122.606C106.059 122.526 106.288 122.461 106.527 122.394L106.551 122.387C107.01 122.269 107.476 122.168 107.953 122.084L105.827 122.606ZM108.531 121.997C108.569 121.991 108.614 121.984 108.656 121.984C108.781 121.966 108.903 121.952 109.028 121.938C109.3 121.914 109.564 121.893 109.832 121.883L108.531 121.997Z" fill="#17181A" stroke="#F2F1ED" stroke-width="0.384"/>
</svg>
