<svg width="800" height="800" viewBox="0 0 800 800" fill="none" xmlns="http://www.w3.org/2000/svg">
<rect width="647" height="587" transform="translate(87 106)" fill="white"/>
<path d="M800 800H0V0H800V800ZM157.998 625.7H258.75V625.459H383.565L337.539 579.433H204.267V253.958L243.601 293.293L296.514 346.157L296.755 346.036C308.962 340.641 322.163 337.86 335.51 337.87H353.63L237.005 221.244H482.796C495.633 221.236 508.287 224.3 519.698 230.181C531.11 236.061 540.948 244.587 548.393 255.046C557.274 267.581 562.174 282.5 562.454 297.859V299.212C562.473 311.993 559.345 324.582 553.345 335.867C547.344 347.152 538.656 356.785 528.049 363.915C515.185 372.623 499.997 377.254 484.463 377.204H335.413C332.224 377.227 329.042 377.493 325.894 378.001C322.276 378.518 318.738 379.485 315.359 380.877L313.609 381.58C313.319 381.701 313.032 381.827 312.75 381.964C302.751 386.421 294.306 393.756 288.492 403.032C282.827 412.026 279.812 422.435 279.794 433.064C279.79 440.34 281.235 447.543 284.043 454.255C286.851 460.967 290.967 467.053 296.151 472.157L449.429 625.435H514.857L328.865 439.443C327.911 438.537 327.154 437.442 326.643 436.229C326.256 435.215 326.038 434.248 326.038 433.04C326.031 431.487 326.393 429.953 327.095 428.567C327.796 427.181 328.817 425.982 330.073 425.067C330.763 424.567 331.531 424.184 332.345 423.932C333.36 423.608 334.42 423.453 335.485 423.473H484.486C504.832 423.504 524.873 418.523 542.837 408.97C560.801 399.417 576.136 385.586 587.485 368.699C601.361 348.184 608.767 323.979 608.747 299.212L608.723 299.261C608.758 281.981 605.118 264.891 598.044 249.126C588.158 227.254 572.21 208.673 552.09 195.585C532.157 182.562 508.237 175 482.844 175H157.998V625.7ZM575.813 625.472H641.218V625.447L478.59 462.818H413.162L575.813 625.472Z" fill="#17181A"/>
</svg>
