<svg width="1200" height="800" viewBox="0 0 1200 800" fill="none" xmlns="http://www.w3.org/2000/svg">
  <rect width="1200" height="800" fill="#F8F8F8"/>
  <rect x="40" y="40" width="1120" height="720" rx="4" fill="#FFFFFF" stroke="#E5E5E5"/>
  <rect x="40" y="40" width="1120" height="60" fill="#1A1A1A"/>
  <rect x="70" y="58" width="100" height="24" rx="2" fill="#FFFFFF"/>
  <rect x="70" y="130" width="200" height="20" rx="2" fill="#333333"/>
  <rect x="1000" y="126" width="130" height="28" rx="4" fill="#FAFAFA" stroke="#E0E0E0"/>
  <rect x="70" y="170" width="1060" height="36" rx="0" fill="#F5F5F5"/>
  <rect x="86" y="180" width="30" height="14" rx="2" fill="#888888"/>
  <rect x="140" y="180" width="120" height="14" rx="2" fill="#888888"/>
  <rect x="290" y="180" width="80" height="14" rx="2" fill="#888888"/>
  <rect x="400" y="180" width="60" height="14" rx="2" fill="#888888"/>
  <rect x="490" y="180" width="80" height="14" rx="2" fill="#888888"/>
  <rect x="600" y="180" width="60" height="14" rx="2" fill="#888888"/>
  <rect x="690" y="180" width="80" height="14" rx="2" fill="#888888"/>
  <rect x="800" y="180" width="60" height="14" rx="2" fill="#888888"/>
  <rect x="890" y="180" width="80" height="14" rx="2" fill="#888888"/>
  <rect x="1000" y="180" width="60" height="14" rx="2" fill="#888888"/>
  <rect x="70" y="218" width="1060" height="40" fill="#FFFFFF" stroke="#EEEEEE"/>
  <rect x="70" y="268" width="1060" height="40" fill="#FFFFFF" stroke="#EEEEEE"/>
  <rect x="70" y="318" width="1060" height="40" fill="#FAFAFA" stroke="#EEEEEE"/>
  <rect x="70" y="368" width="1060" height="40" fill="#FFFFFF" stroke="#EEEEEE"/>
  <rect x="70" y="418" width="1060" height="40" fill="#FFFFFF" stroke="#EEEEEE"/>
  <rect x="70" y="468" width="1060" height="40" fill="#FAFAFA" stroke="#EEEEEE"/>
  <rect x="70" y="518" width="1060" height="40" fill="#FFFFFF" stroke="#EEEEEE"/>
  <rect x="70" y="568" width="1060" height="40" fill="#FFFFFF" stroke="#EEEEEE"/>
  <rect x="70" y="618" width="1060" height="40" fill="#FAFAFA" stroke="#EEEEEE"/>
  <rect x="70" y="668" width="1060" height="40" fill="#FFFFFF" stroke="#EEEEEE"/>
  <text x="600" y="760" font-family="system-ui, sans-serif" font-size="13" fill="#AAAAAA" text-anchor="middle">High-density data view</text>
</svg>

