<svg width="1200" height="800" viewBox="0 0 1200 800" fill="none" xmlns="http://www.w3.org/2000/svg">
  <rect width="1200" height="800" fill="#F8F8F8"/>
  <rect x="200" y="100" width="800" height="600" rx="8" fill="#FFFFFF" stroke="#E5E5E5" stroke-width="1"/>
  <rect x="200" y="100" width="800" height="56" rx="8" fill="#FAFAFA"/>
  <rect x="230" y="122" width="160" height="16" rx="2" fill="#333333"/>
  <rect x="920" y="118" width="60" height="24" rx="4" fill="#E0E0E0"/>
  <rect x="230" y="180" width="120" height="12" rx="2" fill="#AAAAAA"/>
  <rect x="230" y="210" width="740" height="44" rx="4" fill="#FAFAFA" stroke="#EEEEEE"/>
  <rect x="250" y="224" width="200" height="14" rx="2" fill="#CCCCCC"/>
  <rect x="230" y="280" width="120" height="12" rx="2" fill="#AAAAAA"/>
  <rect x="230" y="310" width="740" height="44" rx="4" fill="#FAFAFA" stroke="#EEEEEE"/>
  <rect x="250" y="324" width="300" height="14" rx="2" fill="#CCCCCC"/>
  <rect x="230" y="380" width="120" height="12" rx="2" fill="#AAAAAA"/>
  <rect x="230" y="410" width="360" height="44" rx="4" fill="#FAFAFA" stroke="#EEEEEE"/>
  <rect x="610" y="410" width="360" height="44" rx="4" fill="#FAFAFA" stroke="#EEEEEE"/>
  <rect x="230" y="490" width="120" height="12" rx="2" fill="#AAAAAA"/>
  <rect x="230" y="520" width="740" height="100" rx="4" fill="#FAFAFA" stroke="#EEEEEE"/>
  <rect x="830" y="650" width="140" height="36" rx="4" fill="#333333"/>
  <text x="600" y="760" font-family="system-ui, sans-serif" font-size="13" fill="#AAAAAA" text-anchor="middle">Configuration screen</text>
</svg>

