<svg width="1200" height="800" viewBox="0 0 1200 800" fill="none" xmlns="http://www.w3.org/2000/svg">
  <rect width="1200" height="800" fill="#F8F8F8"/>
  <rect x="40" y="40" width="1120" height="720" rx="4" fill="#FFFFFF" stroke="#E5E5E5" stroke-width="1"/>
  <rect x="40" y="40" width="220" height="720" fill="#FAFAFA"/>
  <rect x="60" y="70" width="100" height="20" rx="2" fill="#E0E0E0"/>
  <rect x="60" y="110" width="160" height="12" rx="2" fill="#EEEEEE"/>
  <rect x="60" y="134" width="140" height="12" rx="2" fill="#EEEEEE"/>
  <rect x="60" y="158" width="150" height="12" rx="2" fill="#EEEEEE"/>
  <rect x="60" y="200" width="80" height="10" rx="2" fill="#E0E0E0"/>
  <rect x="60" y="224" width="160" height="12" rx="2" fill="#EEEEEE"/>
  <rect x="60" y="248" width="120" height="12" rx="2" fill="#EEEEEE"/>
  <rect x="290" y="70" width="200" height="24" rx="2" fill="#333333"/>
  <rect x="290" y="120" width="840" height="280" rx="4" fill="#FAFAFA" stroke="#EEEEEE"/>
  <rect x="320" y="150" width="300" height="16" rx="2" fill="#E0E0E0"/>
  <rect x="320" y="180" width="500" height="12" rx="2" fill="#EEEEEE"/>
  <rect x="320" y="220" width="780" height="140" rx="4" fill="#F0F0F0"/>
  <rect x="290" y="430" width="400" height="200" rx="4" fill="#FAFAFA" stroke="#EEEEEE"/>
  <rect x="710" y="430" width="420" height="200" rx="4" fill="#FAFAFA" stroke="#EEEEEE"/>
  <text x="600" y="760" font-family="system-ui, sans-serif" font-size="13" fill="#AAAAAA" text-anchor="middle">Main product interface</text>
</svg>

