<svg width="1200" height="800" viewBox="0 0 1200 800" fill="none" xmlns="http://www.w3.org/2000/svg">
  <rect width="1200" height="800" fill="#F5F5F5"/>
  
  <!-- Mobile device frame -->
  <rect x="460" y="40" width="280" height="580" rx="32" fill="#1A1A1A"/>
  <rect x="468" y="48" width="264" height="564" rx="28" fill="#FFFFFF"/>
  
  <!-- Status bar -->
  <rect x="480" y="60" width="30" height="8" rx="2" fill="#333333"/>
  <rect x="680" y="60" width="40" height="8" rx="2" fill="#333333"/>
  
  <!-- Notch -->
  <rect x="550" y="52" width="100" height="20" rx="10" fill="#1A1A1A"/>
  
  <!-- Mobile content -->
  <rect x="488" y="100" width="224" height="40" rx="4" fill="#FAFAFA"/>
  <rect x="500" y="112" width="100" height="16" rx="2" fill="#333333"/>
  <circle cx="688" cy="120" r="12" fill="#E0E0E0"/>
  
  <!-- Cards -->
  <rect x="488" y="156" width="224" height="100" rx="8" fill="#FAFAFA" stroke="#EEEEEE" stroke-width="1"/>
  <rect x="504" y="172" width="120" height="10" rx="2" fill="#333333"/>
  <rect x="504" y="192" width="80" height="8" rx="2" fill="#999999"/>
  <rect x="504" y="220" width="192" height="20" rx="4" fill="#E8E8E8"/>
  
  <rect x="488" y="272" width="224" height="100" rx="8" fill="#FAFAFA" stroke="#EEEEEE" stroke-width="1"/>
  <rect x="504" y="288" width="100" height="10" rx="2" fill="#333333"/>
  <rect x="504" y="308" width="140" height="8" rx="2" fill="#999999"/>
  <rect x="504" y="336" width="192" height="20" rx="4" fill="#E8E8E8"/>
  
  <rect x="488" y="388" width="224" height="100" rx="8" fill="#FAFAFA" stroke="#EEEEEE" stroke-width="1"/>
  <rect x="504" y="404" width="130" height="10" rx="2" fill="#333333"/>
  <rect x="504" y="424" width="100" height="8" rx="2" fill="#999999"/>
  <rect x="504" y="452" width="192" height="20" rx="4" fill="#E8E8E8"/>
  
  <!-- Bottom nav -->
  <rect x="488" y="540" width="224" height="56" rx="0 0 20 20" fill="#FAFAFA"/>
  <circle cx="528" cy="568" r="12" fill="#333333"/>
  <circle cx="580" cy="568" r="12" fill="#E0E0E0"/>
  <circle cx="632" cy="568" r="12" fill="#E0E0E0"/>
  <circle cx="684" cy="568" r="12" fill="#E0E0E0"/>
  
  <!-- Annotations -->
  <line x1="750" y1="120" x2="850" y2="120" stroke="#999999" stroke-width="1" stroke-dasharray="4"/>
  <rect x="860" y="108" width="160" height="24" rx="4" fill="#F0F0F0"/>
  <rect x="872" y="116" width="100" height="8" rx="2" fill="#999999"/>
  
  <line x1="750" y1="210" x2="850" y2="210" stroke="#999999" stroke-width="1" stroke-dasharray="4"/>
  <rect x="860" y="198" width="180" height="24" rx="4" fill="#F0F0F0"/>
  <rect x="872" y="206" width="120" height="8" rx="2" fill="#999999"/>
  
  <line x1="750" y1="568" x2="850" y2="568" stroke="#999999" stroke-width="1" stroke-dasharray="4"/>
  <rect x="860" y="556" width="140" height="24" rx="4" fill="#F0F0F0"/>
  <rect x="872" y="564" width="80" height="8" rx="2" fill="#999999"/>
  
  <!-- Placeholder text -->
  <text x="600" y="750" font-family="system-ui, sans-serif" font-size="14" fill="#999999" text-anchor="middle">Mobile Responsive Layout — Replace with actual screenshot</text>
</svg>

