<svg width="1200" height="800" viewBox="0 0 1200 800" fill="none" xmlns="http://www.w3.org/2000/svg">
  <rect width="1200" height="800" fill="#F8F8F8"/>
  <rect x="40" y="40" width="1120" height="720" rx="4" fill="#FFFFFF" stroke="#E5E5E5"/>
  <rect x="40" y="40" width="240" height="720" fill="#FAFAFA"/>
  <rect x="70" y="70" width="120" height="24" rx="2" fill="#333333"/>
  <rect x="310" y="70" width="160" height="20" rx="2" fill="#333333"/>
  <rect x="310" y="110" width="820" height="1" fill="#EEEEEE"/>
  <rect x="310" y="140" width="300" height="48" rx="4" fill="#FAFAFA" stroke="#E0E0E0"/>
  <rect x="330" y="156" width="200" height="14" rx="2" fill="#CCCCCC"/>
  <rect x="1040" y="140" width="90" height="48" rx="4" fill="#333333"/>
  <rect x="310" y="220" width="820" height="120" rx="6" fill="#FAFAFA" stroke="#EEEEEE"/>
  <rect x="340" y="250" width="160" height="14" rx="2" fill="#333333"/>
  <rect x="340" y="280" width="400" height="12" rx="2" fill="#CCCCCC"/>
  <rect x="1040" y="260" width="60" height="28" rx="4" fill="#E8F5E9"/>
  <rect x="310" y="360" width="820" height="120" rx="6" fill="#FAFAFA" stroke="#EEEEEE"/>
  <rect x="340" y="390" width="180" height="14" rx="2" fill="#333333"/>
  <rect x="340" y="420" width="350" height="12" rx="2" fill="#CCCCCC"/>
  <rect x="1040" y="400" width="60" height="28" rx="4" fill="#FFF3E0"/>
  <rect x="310" y="500" width="820" height="120" rx="6" fill="#FAFAFA" stroke="#EEEEEE"/>
  <rect x="340" y="530" width="200" height="14" rx="2" fill="#333333"/>
  <rect x="340" y="560" width="300" height="12" rx="2" fill="#CCCCCC"/>
  <rect x="1040" y="540" width="60" height="28" rx="4" fill="#E8F5E9"/>
  <rect x="310" y="650" width="400" height="80" rx="6" fill="#F0F0F0"/>
  <text x="600" y="770" font-family="system-ui, sans-serif" font-size="13" fill="#AAAAAA" text-anchor="middle">Key workflow screen</text>
</svg>

