<svg width="1200" height="800" viewBox="0 0 1200 800" fill="none" xmlns="http://www.w3.org/2000/svg">
  <rect width="1200" height="800" fill="#F8F8F8"/>
  <rect x="400" y="40" width="400" height="720" rx="32" fill="#1A1A1A"/>
  <rect x="412" y="52" width="376" height="696" rx="24" fill="#FFFFFF"/>
  <rect x="500" y="60" width="200" height="24" rx="12" fill="#1A1A1A"/>
  <rect x="440" y="110" width="120" height="20" rx="2" fill="#333333"/>
  <rect x="440" y="145" width="320" height="8" rx="4" fill="#E0E0E0"/>
  <rect x="440" y="145" width="160" height="8" rx="4" fill="#333333"/>
  <rect x="440" y="170" width="60" height="12" rx="2" fill="#999999"/>
  <rect x="440" y="210" width="200" height="16" rx="2" fill="#333333"/>
  <rect x="440" y="240" width="320" height="80" rx="8" fill="#FAFAFA" stroke="#EEEEEE"/>
  <rect x="460" y="260" width="140" height="14" rx="2" fill="#666666"/>
  <rect x="460" y="284" width="200" height="12" rx="2" fill="#AAAAAA"/>
  <rect x="720" y="262" width="24" height="24" rx="12" fill="#E0E0E0"/>
  <rect x="440" y="340" width="320" height="80" rx="8" fill="#FAFAFA" stroke="#EEEEEE"/>
  <rect x="460" y="360" width="160" height="14" rx="2" fill="#666666"/>
  <rect x="460" y="384" width="180" height="12" rx="2" fill="#AAAAAA"/>
  <rect x="720" y="362" width="24" height="24" rx="12" fill="#E0E0E0"/>
  <rect x="440" y="440" width="320" height="80" rx="8" fill="#E8F5E9" stroke="#A5D6A7"/>
  <rect x="460" y="460" width="120" height="14" rx="2" fill="#2E7D32"/>
  <rect x="460" y="484" width="160" height="12" rx="2" fill="#4CAF50"/>
  <rect x="720" y="462" width="24" height="24" rx="12" fill="#4CAF50"/>
  <rect x="440" y="540" width="320" height="80" rx="8" fill="#FAFAFA" stroke="#EEEEEE"/>
  <rect x="460" y="560" width="180" height="14" rx="2" fill="#666666"/>
  <rect x="460" y="584" width="140" height="12" rx="2" fill="#AAAAAA"/>
  <rect x="720" y="562" width="24" height="24" rx="12" fill="#E0E0E0"/>
  <rect x="440" y="660" width="320" height="56" rx="8" fill="#333333"/>
  <text x="600" y="770" font-family="system-ui, sans-serif" font-size="13" fill="#AAAAAA" text-anchor="middle">Scheduling flow</text>
</svg>

