<svg width="1200" height="800" viewBox="0 0 1200 800" fill="none" xmlns="http://www.w3.org/2000/svg">
  <rect width="1200" height="800" fill="#F8F8F8"/>
  <rect x="400" y="40" width="400" height="720" rx="32" fill="#1A1A1A"/>
  <rect x="412" y="52" width="376" height="696" rx="24" fill="#FFFFFF"/>
  <rect x="500" y="60" width="200" height="24" rx="12" fill="#1A1A1A"/>
  <rect x="440" y="110" width="40" height="40" rx="20" fill="#E8F5E9"/>
  <circle cx="460" cy="130" r="12" stroke="#4CAF50" stroke-width="2" fill="none"/>
  <path d="M454 130 L458 134 L466 126" stroke="#4CAF50" stroke-width="2" fill="none" stroke-linecap="round" stroke-linejoin="round"/>
  <rect x="500" y="116" width="180" height="18" rx="2" fill="#333333"/>
  <rect x="500" y="140" width="140" height="12" rx="2" fill="#999999"/>
  <rect x="440" y="180" width="320" height="1" fill="#EEEEEE"/>
  <rect x="440" y="210" width="120" height="14" rx="2" fill="#333333"/>
  <rect x="440" y="240" width="320" height="100" rx="8" fill="#FAFAFA" stroke="#EEEEEE"/>
  <rect x="460" y="260" width="100" height="12" rx="2" fill="#AAAAAA"/>
  <rect x="460" y="282" width="200" height="14" rx="2" fill="#333333"/>
  <rect x="460" y="306" width="160" height="12" rx="2" fill="#666666"/>
  <rect x="440" y="360" width="320" height="100" rx="8" fill="#FAFAFA" stroke="#EEEEEE"/>
  <rect x="460" y="380" width="80" height="12" rx="2" fill="#AAAAAA"/>
  <rect x="460" y="402" width="240" height="14" rx="2" fill="#333333"/>
  <rect x="460" y="426" width="180" height="12" rx="2" fill="#666666"/>
  <rect x="440" y="480" width="320" height="100" rx="8" fill="#FAFAFA" stroke="#EEEEEE"/>
  <rect x="460" y="500" width="60" height="12" rx="2" fill="#AAAAAA"/>
  <rect x="460" y="522" width="160" height="14" rx="2" fill="#333333"/>
  <rect x="460" y="546" width="200" height="12" rx="2" fill="#666666"/>
  <rect x="440" y="610" width="320" height="56" rx="8" fill="#FAFAFA" stroke="#E0E0E0"/>
  <rect x="460" y="630" width="200" height="14" rx="2" fill="#666666"/>
  <rect x="440" y="686" width="320" height="48" rx="8" fill="#333333"/>
  <text x="600" y="770" font-family="system-ui, sans-serif" font-size="13" fill="#AAAAAA" text-anchor="middle">Confirmation screen</text>
</svg>

